<?xml version="1.0" encoding="UTF-8" standalone="no"?>
<!DOCTYPE svg PUBLIC "-//W3C//DTD SVG 1.1//EN"
 "http://www.w3.org/Graphics/SVG/1.1/DTD/svg11.dtd">
<!-- Generated by graphviz version 2.38.0 (20140413.2041)
 -->
<!-- Title: controllers_diagram Pages: 1 -->
<svg width="630pt" height="597pt"
 viewBox="0.00 0.00 630.00 596.50" xmlns="http://www.w3.org/2000/svg" xmlns:xlink="http://www.w3.org/1999/xlink">
<g id="graph0" class="graph" transform="scale(1 1) rotate(0) translate(242 354)">
<title>controllers_diagram</title>
<polygon fill="none" stroke="none" points="-242,242.5 -242,-354 388,-354 388,242.5 -242,242.5"/>
<!-- _diagram_info -->
<g id="node1" class="node"><title>_diagram_info</title>
<text text-anchor="start" x="178" y="-233.6" font-family="Times,serif" font-size="13.00">Controllers diagram</text>
<text text-anchor="start" x="178" y="-219.6" font-family="Times,serif" font-size="13.00">Date: Aug 14 2015 &#45; 09:58</text>
<text text-anchor="start" x="178" y="-205.6" font-family="Times,serif" font-size="13.00">Migration version: 20150809212350</text>
<text text-anchor="start" x="178" y="-191.6" font-family="Times,serif" font-size="13.00">Generated by RailRoady 1.3.1</text>
<text text-anchor="start" x="178" y="-177.6" font-family="Times,serif" font-size="13.00">http://railroady.prestonlee.com</text>
</g>
<!-- ApplicationController -->
<g id="node2" class="node"><title>ApplicationController</title>
<path fill="none" stroke="black" d="M-226,-239C-226,-239 -114,-239 -114,-239 -108,-239 -102,-245 -102,-251 -102,-251 -102,-321 -102,-321 -102,-327 -108,-333 -114,-333 -114,-333 -226,-333 -226,-333 -232,-333 -238,-327 -238,-321 -238,-321 -238,-251 -238,-251 -238,-245 -232,-239 -226,-239"/>
<text text-anchor="middle" x="-170" y="-317.8" font-family="Times,serif" font-size="14.00">ApplicationController</text>
<polyline fill="none" stroke="black" points="-238,-310 -102,-310 "/>
<polyline fill="none" stroke="black" points="-238,-286 -102,-286 "/>
<polyline fill="none" stroke="black" points="-238,-262 -102,-262 "/>
<text text-anchor="start" x="-230" y="-246.8" font-family="Times,serif" font-size="14.00">_layout</text>
</g>
<!-- RegistrationsController -->
<g id="node3" class="node"><title>RegistrationsController</title>
<path fill="none" stroke="black" d="M97,238C97,238 221,238 221,238 227,238 233,232 233,226 233,226 233,126 233,126 233,120 227,114 221,114 221,114 97,114 97,114 91,114 85,120 85,126 85,126 85,226 85,226 85,232 91,238 97,238"/>
<text text-anchor="middle" x="159" y="129.2" font-family="Times,serif" font-size="14.00">RegistrationsController</text>
<polyline fill="none" stroke="black" points="85,137 233,137 "/>
<polyline fill="none" stroke="black" points="85,161 233,161 "/>
<polyline fill="none" stroke="black" points="85,185 233,185 "/>
<text text-anchor="start" x="93" y="200.2" font-family="Times,serif" font-size="14.00">_layout</text>
<text text-anchor="start" x="93" y="215.2" font-family="Times,serif" font-size="14.00">account_update_params</text>
<text text-anchor="start" x="93" y="230.2" font-family="Times,serif" font-size="14.00">sign_up_params</text>
</g>
<!-- MainController -->
<g id="node4" class="node"><title>MainController</title>
<path fill="none" stroke="black" d="M-191.5,118.5C-191.5,118.5 -114.5,118.5 -114.5,118.5 -108.5,118.5 -102.5,112.5 -102.5,106.5 -102.5,106.5 -102.5,37.5 -102.5,37.5 -102.5,31.5 -108.5,25.5 -114.5,25.5 -114.5,25.5 -191.5,25.5 -191.5,25.5 -197.5,25.5 -203.5,31.5 -203.5,37.5 -203.5,37.5 -203.5,106.5 -203.5,106.5 -203.5,112.5 -197.5,118.5 -191.5,118.5"/>
<text text-anchor="middle" x="-153" y="40.7" font-family="Times,serif" font-size="14.00">MainController</text>
<polyline fill="none" stroke="black" points="-203.5,48.5 -102.5,48.5 "/>
<text text-anchor="start" x="-195.5" y="63.7" font-family="Times,serif" font-size="14.00">index</text>
<polyline fill="none" stroke="black" points="-203.5,71.5 -102.5,71.5 "/>
<polyline fill="none" stroke="black" points="-203.5,95.5 -102.5,95.5 "/>
<text text-anchor="start" x="-195.5" y="110.7" font-family="Times,serif" font-size="14.00">_layout</text>
</g>
<!-- CharactersController -->
<g id="node5" class="node"><title>CharactersController</title>
<path fill="none" stroke="black" d="M97,84.5C97,84.5 203,84.5 203,84.5 209,84.5 215,78.5 215,72.5 215,72.5 215,-116.5 215,-116.5 215,-122.5 209,-128.5 203,-128.5 203,-128.5 97,-128.5 97,-128.5 91,-128.5 85,-122.5 85,-116.5 85,-116.5 85,72.5 85,72.5 85,78.5 91,84.5 97,84.5"/>
<text text-anchor="middle" x="150" y="-113.3" font-family="Times,serif" font-size="14.00">CharactersController</text>
<polyline fill="none" stroke="black" points="85,-105.5 215,-105.5 "/>
<text text-anchor="start" x="93" y="-90.3" font-family="Times,serif" font-size="14.00">create</text>
<text text-anchor="start" x="93" y="-75.3" font-family="Times,serif" font-size="14.00">destroy</text>
<text text-anchor="start" x="93" y="-60.3" font-family="Times,serif" font-size="14.00">edit</text>
<text text-anchor="start" x="93" y="-45.3" font-family="Times,serif" font-size="14.00">index</text>
<text text-anchor="start" x="93" y="-30.3" font-family="Times,serif" font-size="14.00">new</text>
<text text-anchor="start" x="93" y="-15.3" font-family="Times,serif" font-size="14.00">show</text>
<text text-anchor="start" x="93" y="-0.3" font-family="Times,serif" font-size="14.00">update</text>
<polyline fill="none" stroke="black" points="85,7.5 215,7.5 "/>
<polyline fill="none" stroke="black" points="85,31.5 215,31.5 "/>
<text text-anchor="start" x="93" y="46.7" font-family="Times,serif" font-size="14.00">_layout</text>
<text text-anchor="start" x="93" y="61.7" font-family="Times,serif" font-size="14.00">character_params</text>
<text text-anchor="start" x="93" y="76.7" font-family="Times,serif" font-size="14.00">set_character</text>
</g>
<!-- QuizController -->
<g id="node6" class="node"><title>QuizController</title>
<path fill="none" stroke="black" d="M-192,-0.5C-192,-0.5 -118,-0.5 -118,-0.5 -112,-0.5 -106,-6.5 -106,-12.5 -106,-12.5 -106,-111.5 -106,-111.5 -106,-117.5 -112,-123.5 -118,-123.5 -118,-123.5 -192,-123.5 -192,-123.5 -198,-123.5 -204,-117.5 -204,-111.5 -204,-111.5 -204,-12.5 -204,-12.5 -204,-6.5 -198,-0.5 -192,-0.5"/>
<text text-anchor="middle" x="-155" y="-108.3" font-family="Times,serif" font-size="14.00">QuizController</text>
<polyline fill="none" stroke="black" points="-204,-100.5 -106,-100.5 "/>
<text text-anchor="start" x="-196" y="-85.3" font-family="Times,serif" font-size="14.00">gerar_quiz</text>
<text text-anchor="start" x="-196" y="-70.3" font-family="Times,serif" font-size="14.00">index</text>
<text text-anchor="start" x="-196" y="-55.3" font-family="Times,serif" font-size="14.00">lesson_params</text>
<polyline fill="none" stroke="black" points="-204,-47.5 -106,-47.5 "/>
<polyline fill="none" stroke="black" points="-204,-23.5 -106,-23.5 "/>
<text text-anchor="start" x="-196" y="-8.3" font-family="Times,serif" font-size="14.00">_layout</text>
</g>
<!-- QuestionsController -->
<g id="node7" class="node"><title>QuestionsController</title>
<path fill="none" stroke="black" d="M-56,118C-56,118 46,118 46,118 52,118 58,112 58,106 58,106 58,-98 58,-98 58,-104 52,-110 46,-110 46,-110 -56,-110 -56,-110 -62,-110 -68,-104 -68,-98 -68,-98 -68,106 -68,106 -68,112 -62,118 -56,118"/>
<text text-anchor="middle" x="-5" y="-94.8" font-family="Times,serif" font-size="14.00">QuestionsController</text>
<polyline fill="none" stroke="black" points="-68,-87 58,-87 "/>
<text text-anchor="start" x="-60" y="-71.8" font-family="Times,serif" font-size="14.00">admin_check</text>
<text text-anchor="start" x="-60" y="-56.8" font-family="Times,serif" font-size="14.00">create</text>
<text text-anchor="start" x="-60" y="-41.8" font-family="Times,serif" font-size="14.00">destroy</text>
<text text-anchor="start" x="-60" y="-26.8" font-family="Times,serif" font-size="14.00">edit</text>
<text text-anchor="start" x="-60" y="-11.8" font-family="Times,serif" font-size="14.00">index</text>
<text text-anchor="start" x="-60" y="3.2" font-family="Times,serif" font-size="14.00">new</text>
<text text-anchor="start" x="-60" y="18.2" font-family="Times,serif" font-size="14.00">show</text>
<text text-anchor="start" x="-60" y="33.2" font-family="Times,serif" font-size="14.00">update</text>
<polyline fill="none" stroke="black" points="-68,41 58,41 "/>
<polyline fill="none" stroke="black" points="-68,65 58,65 "/>
<text text-anchor="start" x="-60" y="80.2" font-family="Times,serif" font-size="14.00">_layout</text>
<text text-anchor="start" x="-60" y="95.2" font-family="Times,serif" font-size="14.00">question_params</text>
<text text-anchor="start" x="-60" y="110.2" font-family="Times,serif" font-size="14.00">set_question</text>
</g>
<!-- LessonsController -->
<g id="node8" class="node"><title>LessonsController</title>
<path fill="none" stroke="black" d="M-56,-136.5C-56,-136.5 36,-136.5 36,-136.5 42,-136.5 48,-142.5 48,-148.5 48,-148.5 48,-337.5 48,-337.5 48,-343.5 42,-349.5 36,-349.5 36,-349.5 -56,-349.5 -56,-349.5 -62,-349.5 -68,-343.5 -68,-337.5 -68,-337.5 -68,-148.5 -68,-148.5 -68,-142.5 -62,-136.5 -56,-136.5"/>
<text text-anchor="middle" x="-10" y="-334.3" font-family="Times,serif" font-size="14.00">LessonsController</text>
<polyline fill="none" stroke="black" points="-68,-326.5 48,-326.5 "/>
<text text-anchor="start" x="-60" y="-311.3" font-family="Times,serif" font-size="14.00">create</text>
<text text-anchor="start" x="-60" y="-296.3" font-family="Times,serif" font-size="14.00">destroy</text>
<text text-anchor="start" x="-60" y="-281.3" font-family="Times,serif" font-size="14.00">edit</text>
<text text-anchor="start" x="-60" y="-266.3" font-family="Times,serif" font-size="14.00">index</text>
<text text-anchor="start" x="-60" y="-251.3" font-family="Times,serif" font-size="14.00">new</text>
<text text-anchor="start" x="-60" y="-236.3" font-family="Times,serif" font-size="14.00">show</text>
<text text-anchor="start" x="-60" y="-221.3" font-family="Times,serif" font-size="14.00">update</text>
<polyline fill="none" stroke="black" points="-68,-213.5 48,-213.5 "/>
<polyline fill="none" stroke="black" points="-68,-189.5 48,-189.5 "/>
<text text-anchor="start" x="-60" y="-174.3" font-family="Times,serif" font-size="14.00">_layout</text>
<text text-anchor="start" x="-60" y="-159.3" font-family="Times,serif" font-size="14.00">lesson_params</text>
<text text-anchor="start" x="-60" y="-144.3" font-family="Times,serif" font-size="14.00">set_lesson</text>
</g>
</g>
</svg>
