<?xml version="1.0" encoding="UTF-8" standalone="no"?>
<!DOCTYPE svg PUBLIC "-//W3C//DTD SVG 1.1//EN"
 "http://www.w3.org/Graphics/SVG/1.1/DTD/svg11.dtd">
<!-- Generated by graphviz version 2.38.0 (20140413.2041)
 -->
<!-- Title: models_diagram Pages: 1 -->
<svg width="888pt" height="325pt"
 viewBox="0.00 0.00 888.00 325.00" xmlns="http://www.w3.org/2000/svg" xmlns:xlink="http://www.w3.org/1999/xlink">
<g id="graph0" class="graph" transform="scale(1 1) rotate(0) translate(4 321)">
<title>models_diagram</title>
<polygon fill="none" stroke="none" points="-4,4 -4,-321 884,-321 884,4 -4,4"/>
<!-- _diagram_info -->
<g id="node1" class="node"><title>_diagram_info</title>
<text text-anchor="start" x="8" y="-183.1" font-family="Times,serif" font-size="13.00">Models diagram</text>
<text text-anchor="start" x="8" y="-169.1" font-family="Times,serif" font-size="13.00">Date: Aug 14 2015 &#45; 09:58</text>
<text text-anchor="start" x="8" y="-155.1" font-family="Times,serif" font-size="13.00">Migration version: 20150809212350</text>
<text text-anchor="start" x="8" y="-141.1" font-family="Times,serif" font-size="13.00">Generated by RailRoady 1.3.1</text>
<text text-anchor="start" x="8" y="-127.1" font-family="Times,serif" font-size="13.00">http://railroady.prestonlee.com</text>
</g>
<!-- Character -->
<g id="node2" class="node"><title>Character</title>
<path fill="none" stroke="black" d="M244.5,-60.5C244.5,-60.5 351.5,-60.5 351.5,-60.5 357.5,-60.5 363.5,-66.5 363.5,-72.5 363.5,-72.5 363.5,-244.5 363.5,-244.5 363.5,-250.5 357.5,-256.5 351.5,-256.5 351.5,-256.5 244.5,-256.5 244.5,-256.5 238.5,-256.5 232.5,-250.5 232.5,-244.5 232.5,-244.5 232.5,-72.5 232.5,-72.5 232.5,-66.5 238.5,-60.5 244.5,-60.5"/>
<text text-anchor="middle" x="298" y="-241.3" font-family="Times,serif" font-size="14.00">Character</text>
<polyline fill="none" stroke="black" points="232.5,-233.5 363.5,-233.5 "/>
<text text-anchor="start" x="240.5" y="-218.3" font-family="Times,serif" font-size="14.00">id :integer</text>
<text text-anchor="start" x="240.5" y="-203.3" font-family="Times,serif" font-size="14.00">name :string</text>
<text text-anchor="start" x="240.5" y="-188.3" font-family="Times,serif" font-size="14.00">xp :integer</text>
<text text-anchor="start" x="240.5" y="-173.3" font-family="Times,serif" font-size="14.00">gold :integer</text>
<text text-anchor="start" x="240.5" y="-158.3" font-family="Times,serif" font-size="14.00">hair :string</text>
<text text-anchor="start" x="240.5" y="-143.3" font-family="Times,serif" font-size="14.00">skin :string</text>
<text text-anchor="start" x="240.5" y="-128.3" font-family="Times,serif" font-size="14.00">shirt :string</text>
<text text-anchor="start" x="240.5" y="-113.3" font-family="Times,serif" font-size="14.00">pants :string</text>
<text text-anchor="start" x="240.5" y="-98.3" font-family="Times,serif" font-size="14.00">User_id :integer</text>
<text text-anchor="start" x="240.5" y="-83.3" font-family="Times,serif" font-size="14.00">created_at :datetime</text>
<text text-anchor="start" x="240.5" y="-68.3" font-family="Times,serif" font-size="14.00">updated_at :datetime</text>
</g>
<!-- Question -->
<g id="node3" class="node"><title>Question</title>
<path fill="none" stroke="black" d="M393.5,-75.5C393.5,-75.5 500.5,-75.5 500.5,-75.5 506.5,-75.5 512.5,-81.5 512.5,-87.5 512.5,-87.5 512.5,-229.5 512.5,-229.5 512.5,-235.5 506.5,-241.5 500.5,-241.5 500.5,-241.5 393.5,-241.5 393.5,-241.5 387.5,-241.5 381.5,-235.5 381.5,-229.5 381.5,-229.5 381.5,-87.5 381.5,-87.5 381.5,-81.5 387.5,-75.5 393.5,-75.5"/>
<text text-anchor="middle" x="447" y="-226.3" font-family="Times,serif" font-size="14.00">Question</text>
<polyline fill="none" stroke="black" points="381.5,-218.5 512.5,-218.5 "/>
<text text-anchor="start" x="389.5" y="-203.3" font-family="Times,serif" font-size="14.00">id :integer</text>
<text text-anchor="start" x="389.5" y="-188.3" font-family="Times,serif" font-size="14.00">lesson :string</text>
<text text-anchor="start" x="389.5" y="-173.3" font-family="Times,serif" font-size="14.00">statement :text</text>
<text text-anchor="start" x="389.5" y="-158.3" font-family="Times,serif" font-size="14.00">a :string</text>
<text text-anchor="start" x="389.5" y="-143.3" font-family="Times,serif" font-size="14.00">b :string</text>
<text text-anchor="start" x="389.5" y="-128.3" font-family="Times,serif" font-size="14.00">c :string</text>
<text text-anchor="start" x="389.5" y="-113.3" font-family="Times,serif" font-size="14.00">d :string</text>
<text text-anchor="start" x="389.5" y="-98.3" font-family="Times,serif" font-size="14.00">created_at :datetime</text>
<text text-anchor="start" x="389.5" y="-83.3" font-family="Times,serif" font-size="14.00">updated_at :datetime</text>
</g>
<!-- Lesson -->
<g id="node4" class="node"><title>Lesson</title>
<path fill="none" stroke="black" d="M542.5,-105.5C542.5,-105.5 649.5,-105.5 649.5,-105.5 655.5,-105.5 661.5,-111.5 661.5,-117.5 661.5,-117.5 661.5,-199.5 661.5,-199.5 661.5,-205.5 655.5,-211.5 649.5,-211.5 649.5,-211.5 542.5,-211.5 542.5,-211.5 536.5,-211.5 530.5,-205.5 530.5,-199.5 530.5,-199.5 530.5,-117.5 530.5,-117.5 530.5,-111.5 536.5,-105.5 542.5,-105.5"/>
<text text-anchor="middle" x="596" y="-196.3" font-family="Times,serif" font-size="14.00">Lesson</text>
<polyline fill="none" stroke="black" points="530.5,-188.5 661.5,-188.5 "/>
<text text-anchor="start" x="538.5" y="-173.3" font-family="Times,serif" font-size="14.00">id :integer</text>
<text text-anchor="start" x="538.5" y="-158.3" font-family="Times,serif" font-size="14.00">url :string</text>
<text text-anchor="start" x="538.5" y="-143.3" font-family="Times,serif" font-size="14.00">subject :string</text>
<text text-anchor="start" x="538.5" y="-128.3" font-family="Times,serif" font-size="14.00">created_at :datetime</text>
<text text-anchor="start" x="538.5" y="-113.3" font-family="Times,serif" font-size="14.00">updated_at :datetime</text>
</g>
<!-- User -->
<g id="node5" class="node"><title>User</title>
<path fill="none" stroke="black" d="M692,-0.5C692,-0.5 868,-0.5 868,-0.5 874,-0.5 880,-6.5 880,-12.5 880,-12.5 880,-304.5 880,-304.5 880,-310.5 874,-316.5 868,-316.5 868,-316.5 692,-316.5 692,-316.5 686,-316.5 680,-310.5 680,-304.5 680,-304.5 680,-12.5 680,-12.5 680,-6.5 686,-0.5 692,-0.5"/>
<text text-anchor="middle" x="780" y="-301.3" font-family="Times,serif" font-size="14.00">User</text>
<polyline fill="none" stroke="black" points="680,-293.5 880,-293.5 "/>
<text text-anchor="start" x="688" y="-278.3" font-family="Times,serif" font-size="14.00">id :integer</text>
<text text-anchor="start" x="688" y="-263.3" font-family="Times,serif" font-size="14.00">name :string</text>
<text text-anchor="start" x="688" y="-248.3" font-family="Times,serif" font-size="14.00">email :string</text>
<text text-anchor="start" x="688" y="-233.3" font-family="Times,serif" font-size="14.00">encrypted_password :string</text>
<text text-anchor="start" x="688" y="-218.3" font-family="Times,serif" font-size="14.00">reset_password_token :string</text>
<text text-anchor="start" x="688" y="-203.3" font-family="Times,serif" font-size="14.00">reset_password_sent_at :datetime</text>
<text text-anchor="start" x="688" y="-188.3" font-family="Times,serif" font-size="14.00">remember_created_at :datetime</text>
<text text-anchor="start" x="688" y="-173.3" font-family="Times,serif" font-size="14.00">sign_in_count :integer</text>
<text text-anchor="start" x="688" y="-158.3" font-family="Times,serif" font-size="14.00">current_sign_in_at :datetime</text>
<text text-anchor="start" x="688" y="-143.3" font-family="Times,serif" font-size="14.00">last_sign_in_at :datetime</text>
<text text-anchor="start" x="688" y="-128.3" font-family="Times,serif" font-size="14.00">current_sign_in_ip :string</text>
<text text-anchor="start" x="688" y="-113.3" font-family="Times,serif" font-size="14.00">last_sign_in_ip :string</text>
<text text-anchor="start" x="688" y="-98.3" font-family="Times,serif" font-size="14.00">confirmation_token :string</text>
<text text-anchor="start" x="688" y="-83.3" font-family="Times,serif" font-size="14.00">confirmed_at :datetime</text>
<text text-anchor="start" x="688" y="-68.3" font-family="Times,serif" font-size="14.00">confirmation_sent_at :datetime</text>
<text text-anchor="start" x="688" y="-53.3" font-family="Times,serif" font-size="14.00">unconfirmed_email :string</text>
<text text-anchor="start" x="688" y="-38.3" font-family="Times,serif" font-size="14.00">created_at :datetime</text>
<text text-anchor="start" x="688" y="-23.3" font-family="Times,serif" font-size="14.00">updated_at :datetime</text>
<text text-anchor="start" x="688" y="-8.3" font-family="Times,serif" font-size="14.00">admin :boolean</text>
</g>
</g>
</svg>
